<?xml version="1.0" encoding="UTF-8"?>
<!-- Generator: Adobe Illustrator 16.0.0, SVG Export Plug-In . SVG Version: 6.00 Build 0)  -->
<!DOCTYPE svg PUBLIC "-//W3C//DTD SVG 1.1//EN" "http://www.w3.org/Graphics/SVG/1.1/DTD/svg11.dtd">
<svg version="1.1" id="Layer_1" xmlns="http://www.w3.org/2000/svg" xmlns:xlink="http://www.w3.org/1999/xlink" x="0px" y="0px" width="88.425px" height="163.25px" viewBox="0 0 88.425 163.25" enable-background="new 0 0 88.425 163.25" xml:space="preserve">
<g>
	<path fill="none" stroke="#999999" stroke-width="2" stroke-linecap="round" d="M20.101,56.969   c0.389-0.821,0.528-1.568,0.528-2.549c0-3.39-2.617-6.138-5.846-6.138S8.937,51.03,8.937,54.42c0,0.773,0.137,1.512,0.385,2.192"/>
	<line fill="none" stroke="#999999" stroke-width="2" stroke-linecap="round" x1="1.871" y1="53.898" x2="5.896" y2="53.898"/>
	<line fill="none" stroke="#999999" stroke-width="2" stroke-linecap="round" x1="2.916" y1="60.141" x2="26.932" y2="60.141"/>
	<line fill="none" stroke="#999999" stroke-width="2" stroke-linecap="round" x1="23.906" y1="53.898" x2="27.932" y2="53.898"/>
	<line fill="none" stroke="#999999" stroke-width="2" stroke-linecap="round" x1="5.26" y1="44.903" x2="8.251" y2="47.597"/>
	<line fill="none" stroke="#999999" stroke-width="2" stroke-linecap="round" x1="24.965" y1="44.828" x2="21.974" y2="47.521"/>
	<line fill="none" stroke="#999999" stroke-width="2" stroke-linecap="round" x1="14.93" y1="44.921" x2="14.93" y2="40.897"/>
</g>
<g>
	<path fill="none" stroke="#999999" stroke-width="2" d="M20.879,87.904c-1.701-1.198-3.782-1.916-6.039-1.916   c-5.716,0-10.35,4.539-10.35,10.142c0,5.601,4.634,10.14,10.35,10.14c2.874,0,5.473-1.146,7.35-3.002   c-4.111-0.334-7.353-3.67-7.353-7.781C14.837,91.82,17.412,88.768,20.879,87.904z"/>
</g>
<g>
	<circle fill="none" stroke="#999999" stroke-width="2" cx="15.518" cy="146.651" r="6.48"/>
	<line fill="none" stroke="#999999" stroke-width="2" stroke-linecap="round" x1="15.518" y1="132.113" x2="15.518" y2="136.295"/>
	<line fill="none" stroke="#999999" stroke-width="2" stroke-linecap="round" x1="5.181" y1="146.65" x2="1" y2="146.65"/>
	<line fill="none" stroke="#999999" stroke-width="2" stroke-linecap="round" x1="30.066" y1="146.65" x2="25.885" y2="146.65"/>
	<line fill="none" stroke="#999999" stroke-width="2" stroke-linecap="round" x1="26.177" y1="136.786" x2="23.22" y2="139.741"/>
	<line fill="none" stroke="#999999" stroke-width="2" stroke-linecap="round" x1="5.09" y1="136.555" x2="8.047" y2="139.512"/>
	<line fill="none" stroke="#999999" stroke-width="2" stroke-linecap="round" x1="25.637" y1="157.07" x2="22.68" y2="154.113"/>
	<line fill="none" stroke="#999999" stroke-width="2" stroke-linecap="round" x1="5.028" y1="156.786" x2="7.985" y2="153.831"/>
	<line fill="none" stroke="#999999" stroke-width="2" stroke-linecap="round" x1="15.518" y1="157.07" x2="15.518" y2="161.25"/>
</g>
<g>
	<path fill="#999999" d="M17.499,11.697c1.695,0,3.069-1.375,3.069-3.069c0-1.696-1.375-3.07-3.069-3.07   c-1.696,0-3.07,1.374-3.07,3.07C14.429,10.323,15.803,11.697,17.499,11.697"/>
	<line fill="none" stroke="#999999" stroke-width="2" stroke-linecap="round" x1="17.498" y1="1" x2="17.498" y2="3.436"/>
	<line fill="none" stroke="#999999" stroke-width="2" stroke-linecap="round" x1="12.693" y1="8.121" x2="10.257" y2="8.121"/>
	<line fill="none" stroke="#999999" stroke-width="2" stroke-linecap="round" x1="24.739" y1="8.121" x2="22.304" y2="8.121"/>
	<line fill="none" stroke="#999999" stroke-width="2" stroke-linecap="round" x1="22.811" y1="2.808" x2="21.089" y2="4.53"/>
	<line fill="none" stroke="#999999" stroke-width="2" stroke-linecap="round" x1="11.993" y1="2.808" x2="13.714" y2="4.53"/>
	<line fill="none" stroke="#999999" stroke-width="2" stroke-linecap="round" x1="22.811" y1="13.418" x2="21.089" y2="11.697"/>
	<line fill="none" stroke="#000000" stroke-width="2" x1="11.993" y1="13.418" x2="13.714" y2="11.697"/>
	<polygon fill="#999999" stroke="#999999" stroke-width="1.5" points="1.372,16.873 6.815,8.226 18.904,15.031 25.308,10.787    28.431,16.873  "/>
</g>
<g>
	<path fill="none" stroke="#FE492B" stroke-width="2" stroke-linecap="round" d="M67.511,56.969   c0.389-0.821,0.527-1.568,0.527-2.549c0-3.39-2.617-6.138-5.853-6.138s-5.849,2.748-5.849,6.138c0,0.773,0.14,1.512,0.388,2.192"/>
	<line fill="none" stroke="#FE492B" stroke-width="2" stroke-linecap="round" x1="49.281" y1="53.898" x2="53.306" y2="53.898"/>
	<line fill="none" stroke="#FE492B" stroke-width="2" stroke-linecap="round" x1="50.326" y1="60.141" x2="74.341" y2="60.141"/>
	<line fill="none" stroke="#FE492B" stroke-width="2" stroke-linecap="round" x1="71.316" y1="53.898" x2="75.341" y2="53.898"/>
	<line fill="none" stroke="#FE492B" stroke-width="2" stroke-linecap="round" x1="52.671" y1="44.903" x2="55.662" y2="47.597"/>
	<line fill="none" stroke="#FE492B" stroke-width="2" stroke-linecap="round" x1="72.376" y1="44.828" x2="69.384" y2="47.521"/>
	<line fill="none" stroke="#FE492B" stroke-width="2" stroke-linecap="round" x1="62.339" y1="44.921" x2="62.339" y2="40.897"/>
</g>
<g>
	<path fill="none" stroke="#FE492B" stroke-width="2" d="M68.289,87.904c-1.701-1.198-3.781-1.916-6.039-1.916   c-5.715,0-10.35,4.539-10.35,10.142c0,5.601,4.635,10.14,10.35,10.14c2.875,0,5.479-1.146,7.354-3.002   c-4.108-0.334-7.354-3.67-7.354-7.781C62.248,91.82,64.822,88.768,68.289,87.904z"/>
</g>
<circle fill="none" stroke="#FE492B" stroke-width="2" cx="62.928" cy="146.651" r="6.48"/>
<line fill="none" stroke="#FE492B" stroke-width="2" stroke-linecap="round" x1="62.928" y1="132.113" x2="62.928" y2="136.295"/>
<line fill="none" stroke="#FE492B" stroke-width="2" stroke-linecap="round" x1="52.591" y1="146.65" x2="48.41" y2="146.65"/>
<line fill="none" stroke="#FE492B" stroke-width="2" stroke-linecap="round" x1="77.477" y1="146.65" x2="73.294" y2="146.65"/>
<line fill="none" stroke="#FE492B" stroke-width="2" stroke-linecap="round" x1="73.587" y1="136.786" x2="70.63" y2="139.741"/>
<line fill="none" stroke="#FE492B" stroke-width="2" stroke-linecap="round" x1="52.5" y1="136.555" x2="55.457" y2="139.512"/>
<line fill="none" stroke="#FE492B" stroke-width="2" stroke-linecap="round" x1="73.048" y1="157.07" x2="70.091" y2="154.113"/>
<line fill="none" stroke="#FE492B" stroke-width="2" stroke-linecap="round" x1="52.438" y1="156.786" x2="55.396" y2="153.831"/>
<line fill="none" stroke="#FE492B" stroke-width="2" stroke-linecap="round" x1="62.928" y1="157.07" x2="62.928" y2="161.25"/>
<path fill="#FE492B" d="M64.91,11.697c1.694,0,3.068-1.375,3.068-3.069c0-1.696-1.374-3.07-3.068-3.07  c-1.697,0-3.07,1.374-3.07,3.07C61.839,10.323,63.212,11.697,64.91,11.697"/>
<line fill="none" stroke="#FE492B" stroke-width="2" stroke-linecap="round" x1="64.908" y1="1" x2="64.908" y2="3.436"/>
<line fill="none" stroke="#FE492B" stroke-width="2" stroke-linecap="round" x1="60.104" y1="8.121" x2="57.667" y2="8.121"/>
<line fill="none" stroke="#FE492B" stroke-width="2" stroke-linecap="round" x1="72.149" y1="8.121" x2="69.714" y2="8.121"/>
<line fill="none" stroke="#FE492B" stroke-width="2" stroke-linecap="round" x1="70.222" y1="2.808" x2="68.5" y2="4.53"/>
<line fill="none" stroke="#FE492B" stroke-width="2" stroke-linecap="round" x1="59.403" y1="2.808" x2="61.125" y2="4.53"/>
<line fill="none" stroke="#FE492B" stroke-width="2" stroke-linecap="round" x1="70.222" y1="13.418" x2="68.5" y2="11.697"/>
<line fill="none" stroke="#E3C500" stroke-width="2" x1="59.403" y1="13.418" x2="61.125" y2="11.697"/>
<polygon fill="#FE492B" stroke="#FE492B" stroke-width="1.5" points="48.783,16.873 54.226,8.226 66.313,15.031 72.718,10.787   75.841,16.873 "/>
</svg>