<svg xmlns="http://www.w3.org/2000/svg" width="742" height="85"><g fill="#2B2A7A"><path d="M108.25 12.94c.4.3.62.82.62 1.43 0 .62-.2 1.13-.62 1.44s-1.03.52-1.75.52h-.7v1.54h-1.25v-5.33h1.96c.83 0 1.44.1 1.75.4zm-.82 2.15c.1-.22.2-.42.2-.73s-.1-.5-.3-.6c-.2-.12-.52-.22-.93-.22h-.72v1.85h.82c.52-.1.72-.1.93-.3zM113.7 12.52v1.03H111v1.13h2.36v1.03h-2.36v1.13h2.77v1.03h-4v-5.34h3.9zM119.23 14.27c0 .82-.3 1.44-1.02 1.64l1.34 1.96h-1.44l-1.23-1.74h-.82v1.74h-1.23v-5.33h2.05c.82 0 1.44.1 1.75.4.4.3.6.72.6 1.34zm-1.43.62c.1-.12.2-.32.2-.63s-.1-.5-.2-.62c-.1-.1-.4-.2-.82-.2h-.93v1.64h.93c.3 0 .6 0 .82-.2zM121.7 13.55c-.1.1-.2.2-.2.4 0 .22.1.32.2.42.1.1.5.2 1.02.3.52.1.93.32 1.24.63.3.2.4.6.4 1.13 0 .5-.2.92-.5 1.12-.3.2-.83.42-1.44.42-.83 0-1.65-.3-2.26-.93l.72-.92c.6.5 1.13.72 1.64.72.2 0 .4 0 .5-.1s.22-.2.22-.42c0-.2-.1-.3-.2-.4-.1-.1-.42-.2-.83-.3-.6-.12-1.12-.32-1.32-.63-.3-.22-.4-.63-.4-1.14 0-.5.2-.92.5-1.23s.72-.3 1.23-.3c.32 0 .73.1 1.04.2.3.1.72.3.92.5l-.6.93c-.53-.3-.94-.5-1.45-.5-.1 0-.3 0-.4.1zM129.9 17.14c-.5.52-1.22.82-2.04.82-.82 0-1.44-.3-2.06-.82-.5-.5-.82-1.23-.82-1.95 0-.73.3-1.44.82-1.96.52-.5 1.24-.82 2.06-.82.82 0 1.43.3 2.05.82.52.52.83 1.23.83 1.95 0 .7-.3 1.43-.82 1.94zm-.4-1.95c0-.52-.2-.93-.5-1.24-.32-.3-.73-.5-1.14-.5-.4 0-.82.2-1.13.5s-.5.72-.5 1.23c0 .5.1.92.5 1.23.3.3.72.5 1.13.5.4 0 .82-.2 1.13-.5.3-.4.5-.83.5-1.24zM135.45 12.52h1.24v5.34h-1.25l-2.56-3.4v3.4h-1.24v-5.34h1.13l2.65 3.5v-3.5zM141.82 17.86l-.5-1.13h-2.27l-.52 1.13h-1.23l2.36-5.34h1.13l2.35 5.34h-1.33zm-1.64-3.8l-.72 1.54h1.33l-.62-1.54zM143.77 17.86v-5.34H145v4.32h2.26v1.02h-3.5zM148.08 12.52h1.23v5.34h-1.22v-5.34zM151.88 13.55c-.1.1-.2.2-.2.4 0 .22.1.32.2.42.1.1.5.2 1.02.3.52.1.93.32 1.24.63.3.2.4.6.4 1.13 0 .5-.2.92-.5 1.12-.3.2-.83.42-1.44.42-.82 0-1.65-.3-2.26-.93l.72-.92c.6.5 1.13.72 1.64.72.2 0 .4 0 .5-.1s.22-.2.22-.42c0-.2-.1-.3-.2-.4-.1-.1-.42-.2-.83-.3-.62-.12-1.14-.32-1.34-.63-.3-.22-.4-.63-.4-1.14 0-.5.2-.92.5-1.23.3-.3.82-.4 1.33-.4.3 0 .7.1 1.02.2.3.1.72.3.92.5l-.6.93c-.52-.3-.94-.5-1.45-.5-.2.1-.42.1-.52.2zM159.37 12.52v1.03h-2.67v1.13h2.36v1.03h-2.36v1.13h2.77v1.03h-3.9v-5.34h3.8zM164.7 13.24c.52.52.83 1.13.83 1.95 0 .82-.2 1.53-.72 1.94-.5.52-1.22.72-2.24.72h-1.85v-5.33h1.96c.82 0 1.54.2 2.05.7zm-.9 3.2c.3-.32.4-.73.4-1.25s-.1-.93-.4-1.24c-.32-.3-.73-.4-1.35-.4h-.72v3.28h.72c.62 0 1.03-.2 1.34-.4zM121.7 22.07v1.34h-3.19v1.34h2.9v1.23h-2.9v1.34h3.3v1.24h-4.72v-6.47h4.62zM126.73 22.07h1.74l-2.05 3.08 2.16 3.4h-1.75l-1.33-2.17-1.34 2.16h-1.74l2.15-3.3-2.05-3.17h1.75l1.23 1.95 1.23-1.95zM134.02 22.7c.4.4.7 1 .7 1.73 0 .72-.2 1.34-.7 1.75-.52.4-1.13.5-2.16.5h-.92v1.86h-1.44v-6.47h2.26c1.03 0 1.74.2 2.26.62zm-1.13 2.55c.2-.2.3-.5.3-.82 0-.4-.1-.6-.3-.82-.22-.2-.63-.2-1.04-.2h-.92v2.16h1.02c.4-.1.82-.2.93-.3zM140.48 22.07v1.34h-3.18v1.34h2.88v1.23h-2.88v1.34h3.3v1.24h-4.74v-6.47h4.62zM147.05 24.23c0 1.02-.4 1.74-1.23 2.05l1.65 2.36h-1.75l-1.44-2.05h-1.02v2.04h-1.44v-6.47h2.46c1.03 0 1.75.2 2.16.52.4.3.6.8.6 1.53zm-1.74.82c.2-.2.32-.4.32-.72s-.1-.62-.3-.72c-.22-.1-.52-.2-.93-.2h-1.14v1.96h1.02c.5-.1.82-.2 1.03-.3zM151.16 23.3v5.24h-1.44V23.3h-1.85v-1.23H153v1.23h-1.84zM124.98 57.28h1.85c.5 0 .92.4.92.93v3.5h15.92v-3.5c0-.5.4-.92.92-.92h1.84c.5 0 .92.4.92.93v3.5h7.5v-7.6c0-1.64-1.34-2.87-2.88-2.87h-8.2v-3.08c0-1.65-1.34-2.88-2.88-2.88h-10.07c-1.64 0-2.87 1.34-2.87 2.88v3.08h-8.32c-1.64 0-2.87 1.33-2.87 2.87v7.6h7.5v-3.5c-.2-.5.2-.92.7-.92zm5.75-8c0-1.24 1.03-2.26 2.26-2.26h5.22c1.34 0 2.37 1.02 2.37 2.35v1.85h-9.87v-1.95zM146.44 66.52h-1.85c-.52 0-.93-.4-.93-.92v-2.98h-15.92v2.87c0 .5-.4.92-.92.92h-1.85c-.5 0-.92-.4-.92-.93V62.6h-6.68v12.22c0 1.64 1.34 2.87 2.88 2.87h30.6c1.63 0 2.87-1.32 2.87-2.86V62.62h-6.37v2.88c0 .5-.4 1.02-.92 1.02zM157.63 10.57c-.3 0-.62-.1-.82-.3-6.26-4.32-13.54-6.57-21.24-6.57-7.7 0-15 2.25-21.25 6.57-.7.5-1.64.3-2.15-.4-.5-.73-.2-1.66.4-2.17 6.8-4.62 14.8-7.08 23-7.08s16.23 2.46 23 7.08c.72.5.93 1.44.4 2.15-.3.42-.8.72-1.32.72zM156.9 75.35c-.5 0-1.02-.2-1.33-.72-.5-.72-.3-1.64.42-2.15 10.66-6.88 17.03-18.6 17.03-31.3 0-7.1-1.95-13.98-5.75-19.93-.4-.72-.2-1.75.5-2.16.73-.42 1.65-.2 2.17.5 4.1 6.47 6.26 13.97 6.26 21.56 0 13.76-6.87 26.5-18.37 33.98-.4.2-.72.2-.92.2zM114.82 75.66c-.3 0-.62-.1-.82-.2-11.9-7.5-19-20.33-19-34.3 0-7.6 2.16-15.1 6.27-21.55.4-.7 1.44-.92 2.16-.5.6.4.82 1.43.4 2.15-3.8 5.95-5.74 12.83-5.74 19.92 0 12.93 6.56 24.74 17.54 31.72.72.4.93 1.42.5 2.14-.4.4-.8.62-1.32.62zM123.24 36.85h-2.88l-.5 1.34h-1.45l2.78-6.27h1.44l2.77 6.26h-1.55l-.6-1.35zm-.4-1.13l-1.04-2.36-1.03 2.37h2.06zM125.6 31.93h2.87c.72 0 1.24.1 1.75.4.5.3.92.62 1.23 1.14.3.5.4 1.02.4 1.64 0 .62-.1 1.14-.4 1.65-.3.5-.72.82-1.23 1.13-.5.3-1.13.4-1.75.4h-2.87v-6.35zm2.67 5.03c.6 0 1.13-.2 1.54-.52.42-.3.52-.82.52-1.43 0-.6-.2-1.02-.5-1.43-.42-.3-.83-.5-1.55-.5h-1.34v3.9h1.34zM138.22 31.93l-2.66 6.26h-1.44l-2.67-6.27H133l1.84 4.4 1.95-4.4h1.42zM138.33 31.93h1.43v6.26h-1.43v-6.27zM142.02 37.88c-.5-.3-.92-.62-1.23-1.13s-.42-1.02-.42-1.64c0-.6.1-1.12.4-1.63.32-.52.73-.82 1.24-1.13.52-.3 1.13-.4 1.75-.4.5 0 1.02.1 1.44.3s.83.5 1.14.8l-.93.84c-.4-.52-.9-.72-1.53-.72-.4 0-.72.1-1.03.2-.3.2-.5.4-.7.72-.22.3-.22.62-.22 1.03 0 .42.1.73.2 1.03.2.3.42.52.72.72.3.2.62.2 1.03.2.62 0 1.13-.2 1.54-.7l.93.8c-.3.42-.6.63-1.12.83-.4.2-.92.3-1.43.3-.62 0-1.23-.2-1.75-.4zM151.67 36.96v1.13h-4.82V31.8h4.72v1.13h-3.28v1.34h2.86v1.12h-2.87v1.54h3.37z"/></g><g fill="#2B2A7A"><path d="M29.72 22.28v1.33h-3.19v1.34h2.88v1.24h-2.86v1.33h3.28v1.24H25.1v-6.46h4.62zM34.75 22.28h1.74l-2.06 3.08 2.16 3.38h-1.75l-1.33-2.15-1.34 2.14h-1.74l2.15-3.28-2.06-3.18h1.74l1.24 1.95 1.23-1.95zM42.04 22.9c.4.4.72 1.02.72 1.74s-.2 1.33-.72 1.74c-.52.4-1.13.52-2.16.52h-.92v1.84h-1.44v-6.46h2.26c1.02 0 1.74.2 2.26.6zm-1.13 2.56c.2-.2.3-.5.3-.82 0-.4-.1-.62-.3-.82-.2-.2-.6-.2-1.02-.2h-.92v2.15h1.02c.4-.1.82-.2.93-.3zM48.5 22.28v1.33h-3.18v1.34h2.88v1.24h-2.88v1.33h3.3v1.24h-4.74v-6.46h4.62zM55.07 24.43c0 1.03-.4 1.75-1.23 2.06l1.64 2.35h-1.74L52.3 26.8h-1.02v2.05h-1.44v-6.47h2.46c1.03 0 1.75.2 2.16.5s.6.83.6 1.55zm-1.74.82c.2-.2.3-.4.3-.7 0-.32-.1-.63-.3-.73-.2-.1-.52-.2-.93-.2h-1.12v1.94h1.02c.5-.1.82-.2 1.03-.3zM59.18 23.5v5.24h-1.44V23.5H55.9V22.3h5.13v1.23h-1.85zM32.28 57.28h1.85c.5 0 .92.4.92.93v3.5h15.92v-3.5c0-.5.4-.92.92-.92h1.84c.5 0 .92.4.92.93v3.5h7.5v-7.6c0-1.64-1.34-2.87-2.88-2.87h-8.2v-3.08c0-1.65-1.34-2.88-2.88-2.88H38.13c-1.64 0-2.87 1.34-2.87 2.88v3.08h-8.3c-1.66 0-2.9 1.33-2.9 2.87v7.6h7.5v-3.5c-.2-.5.2-.92.72-.92zm5.75-8c0-1.24 1.03-2.26 2.26-2.26h5.23c1.33 0 2.36 1.02 2.36 2.35v1.85h-9.87v-1.95zM53.74 66.52H51.9c-.52 0-.93-.4-.93-.92v-2.98h-15.9v2.87c-.02.5-.43.92-.94.92h-1.85c-.5 0-.92-.4-.92-.93V62.6H24.7v12.22c0 1.64 1.32 2.87 2.86 2.87h30.6c1.64 0 2.87-1.32 2.87-2.86V62.62h-6.37v2.88c0 .5-.4 1.02-.92 1.02zM65.13 10.57c-.3 0-.6-.1-.82-.3C58.06 5.95 50.77 3.7 43.07 3.7c-7.7 0-15 2.25-21.25 6.57-.7.5-1.63.3-2.14-.4-.52-.73-.2-1.66.4-2.17 6.78-4.62 14.8-7.08 23-7.08s16.22 2.46 23 7.08c.72.5.92 1.44.4 2.15-.3.42-.8.72-1.33.72zM64.42 75.35c-.52 0-1.03-.2-1.34-.72-.5-.72-.3-1.64.4-2.15 10.7-6.88 17.05-18.6 17.05-31.3 0-7.1-1.95-13.98-5.75-19.93-.4-.72-.2-1.75.52-2.16.72-.42 1.64-.2 2.15.5 4.1 6.47 6.27 13.97 6.27 21.56 0 13.76-6.88 26.5-18.38 33.98-.4.2-.72.2-.92.2zM22.33 75.66c-.3 0-.62-.1-.82-.2-11.9-7.5-19-20.33-19-34.3 0-7.6 2.17-15.08 6.28-21.55.4-.7 1.43-.92 2.15-.5.62.4.82 1.43.4 2.15C7.54 27.2 5.6 34.08 5.6 41.17c0 12.93 6.56 24.74 17.55 31.72.72.4.92 1.43.5 2.14-.4.4-.8.62-1.32.62zM31.26 36.85h-2.88l-.5 1.34h-1.45l2.77-6.27h1.44l2.77 6.26h-1.53l-.6-1.35zm-.4-1.13l-1.04-2.36-1.03 2.37h2.05zM33.62 31.93h2.87c.7 0 1.23.1 1.74.4.5.3.92.62 1.23 1.14.3.5.4 1.02.4 1.64 0 .62-.1 1.14-.4 1.65-.3.5-.72.82-1.23 1.13-.52.3-1.13.4-1.75.4H33.6v-6.35zm2.67 5.03c.6 0 1.12-.2 1.53-.52.4-.3.5-.82.5-1.43 0-.6-.2-1.02-.5-1.43-.4-.3-.82-.5-1.54-.5h-1.35v3.9h1.34zM46.24 31.93l-2.66 6.26h-1.44l-2.67-6.27H41l1.86 4.4 1.95-4.4h1.45zM46.35 31.93h1.43v6.26h-1.43v-6.27zM50.04 37.88c-.5-.3-.92-.62-1.23-1.13s-.4-1.02-.4-1.64c0-.6.1-1.12.4-1.63.32-.52.73-.82 1.24-1.13s1.13-.4 1.75-.4c.5 0 1 .1 1.42.3s.83.5 1.13.8l-.92.84c-.4-.52-.92-.72-1.54-.72-.42 0-.73.1-1.04.2-.3.2-.5.4-.72.72-.2.3-.2.62-.2 1.03 0 .42.1.73.2 1.03.2.3.42.52.72.72.3.2.62.2 1.03.2.6 0 1.12-.2 1.53-.7l.92.8c-.3.42-.6.63-1.13.83-.4.2-.92.3-1.43.3-.63 0-1.24-.2-1.76-.4zM59.7 36.96v1.13h-4.83V31.8h4.72v1.13h-3.3v1.34h2.88v1.12H56.3v1.54h3.4zM14.93 12.94c.3.2.62.4.82.7.2.32.3.63.3 1.04 0 .4-.1.72-.3 1.03s-.5.52-.82.73c-.3.2-.82.2-1.23.2h-1.13v1.54h-1.23v-5.44h2.36c.4 0 .82.1 1.23.2zm-.5 2.46c.2-.2.3-.4.3-.72 0-.3-.1-.5-.3-.72-.2-.2-.52-.2-.83-.2h-1.03v1.84h1.03c.3 0 .62 0 .82-.2zM21.1 17.14v1.03h-4.2v-5.44h4.1v1.03H18.1V15h2.56v1h-2.56v1.25h2.97v-.1zM25.6 18.17l-1.02-1.54h-1.23v1.54h-1.23v-5.44h2.36c.5 0 .93.1 1.23.2.32.2.63.42.83.72.2.3.3.62.3 1.03 0 .4-.1.72-.3 1.03-.2.3-.5.52-.82.73l1.25 1.74H25.6zm-.3-4.2c-.2-.22-.5-.22-.82-.22h-1.03v1.96h1.03c.4 0 .72-.1.82-.2.2-.2.3-.4.3-.72 0-.4-.1-.6-.3-.82zM28.38 18.07c-.4-.1-.72-.3-.92-.4l.4-.94c.2.2.52.3.83.4s.6.22.9.22c.32 0 .63-.1.84-.2s.3-.2.3-.42c0-.1 0-.2-.1-.3-.1-.1-.2-.2-.4-.2-.22-.1-.42-.1-.63-.22-.4-.1-.7-.2-1-.3-.32-.1-.53-.3-.73-.5-.2-.2-.3-.52-.3-.93 0-.3.1-.62.3-.82.2-.3.4-.4.82-.62.3-.1.7-.2 1.22-.2.3 0 .72 0 1.03.1.3.1.6.2.92.3l-.4.93c-.52-.3-1.04-.4-1.55-.4-.3 0-.62.1-.82.2-.2.1-.2.3-.2.4 0 .2.1.32.3.42.2.1.5.2.93.3.4.1.7.2 1.02.3.3.12.52.22.72.53.2.2.3.52.3.83s-.1.6-.3.82c-.2.3-.4.4-.82.62-.3.1-.82.2-1.23.2-.62.1-1.03 0-1.44-.1zM33.93 17.86c-.4-.2-.82-.6-1.03-1.02-.3-.42-.4-.93-.4-1.44 0-.52.1-1.03.4-1.44s.62-.72 1.03-1.03c.4-.2.92-.4 1.54-.4.6 0 1.02.1 1.54.4.42.2.83.62 1.03 1.03.3.4.4.92.4 1.44 0 .5-.1 1.02-.4 1.44-.3.4-.6.7-1.02 1.02-.4.2-.92.4-1.53.4-.52 0-1.03-.1-1.54-.4zm2.46-.92c.3-.1.5-.3.6-.62.1-.3.2-.6.2-.92s-.1-.62-.2-.93-.3-.5-.6-.6-.52-.22-.93-.22c-.4 0-.62.1-.93.2s-.5.32-.6.62c-.12.3-.22.62-.22.93s.1.6.2.92c.1.3.3.52.62.62.3.1.52.2.93.2.4 0 .6 0 .92-.2zM44.4 12.73v5.44h-1.03l-2.77-3.3v3.3h-1.23v-5.44h1.02L43.05 16v-3.27h1.34zM49.32 17.04h-2.56l-.52 1.13h-1.33l2.47-5.44h1.23l2.47 5.44h-1.34l-.4-1.13zm-.4-1.02l-.83-2.06-.83 2.05h1.64zM51.7 12.73h1.22v4.4h2.77v1.04h-4v-5.44zM56.4 12.73h1.24v5.44H56.4v-5.44zM63.4 17.14v1.03h-4.84v-.82l2.98-3.6h-2.98v-1.02h4.62v.82l-2.97 3.6h3.2zM68.42 17.14v1.03h-4.2v-5.44h4.1v1.03h-2.88V15H68v1h-2.56v1.25h2.98v-.1zM69.44 12.73h2.47c.62 0 1.14.1 1.55.3.4.2.82.52 1.02.93.2.4.4.92.4 1.44s-.1 1.02-.4 1.44-.6.7-1.02.92c-.4.2-1.03.3-1.54.3h-2.46v-5.33zm2.47 4.4c.52 0 1.04-.1 1.34-.4.3-.3.52-.72.52-1.23 0-.5-.2-.92-.52-1.23-.3-.3-.7-.4-1.33-.4H70.8v3.38h1.13v-.1z"/></g><g fill="#2B2A7A"><path d="M406.78 23.5c-.4 0-.82-.2-1.13-.5-.62-.62-.62-1.55 0-2.16l19.2-18.7c.6-.6 1.53-.6 2.15 0 .6.63.6 1.55 0 2.17L407.8 23c-.2.4-.6.5-1.02.5zM407.6 13.04c-3.4 0-6.27-2.77-6.27-6.26 0-3.4 2.78-6.27 6.27-6.27 3.4 0 6.26 2.8 6.26 6.28-.1 3.5-2.88 6.26-6.26 6.26zm0-9.34c-1.75 0-3.2 1.43-3.2 3.18s1.45 3.18 3.2 3.18c1.74 0 3.18-1.44 3.18-3.18-.1-1.75-1.54-3.18-3.18-3.18zM425.25 24.33c-3.28 0-5.85-2.67-5.85-5.85 0-3.3 2.67-5.85 5.85-5.85 3.3 0 5.86 2.67 5.86 5.85 0 3.18-2.56 5.85-5.85 5.85zm-2.77-5.85c0 1.54 1.23 2.77 2.77 2.77s2.78-1.23 2.78-2.77-1.24-2.77-2.78-2.77c-1.54 0-2.77 1.24-2.77 2.78zM399.7 34.4v1.32h-3.2v1.24h2.88v1.23h-2.87v1.32h3.3v1.23h-4.73V34.3l4.62.1zM402.16 35.83l.8 1.33.94-1.33h1.64l-1.74 2.46 1.74 2.56h-1.64l-.92-1.34-.93 1.34h-1.64l1.75-2.57-1.64-2.47h1.66zM408.73 39.63c.5 0 .92-.2 1.23-.72l.82.93c-.62.62-1.33 1.03-2.06 1.03-.72 0-1.33-.2-1.84-.72-.52-.52-.83-1.13-.83-1.85 0-.73.3-1.34.83-1.86s1.12-.72 1.84-.72c.3 0 .72.1 1.13.2.4.1.72.42.93.62l-.72.93c-.2-.2-.3-.3-.62-.4-.2-.12-.4-.22-.72-.22-.4 0-.72.1-.92.3-.2.22-.4.63-.4 1.04s.1.7.4 1c.2.32.5.42.93.42zM413.04 40.86h-1.44v-6.88h1.44v6.88zM417.56 38.5v-2.67H419v4.93h-1.45v-.62c-.3.5-.8.72-1.33.72-.5 0-1.02-.2-1.33-.5-.32-.32-.53-.83-.53-1.55v-2.97h1.44v2.67c0 .72.32 1.13.83 1.13.3 0 .52-.1.72-.3.1-.1.2-.42.2-.83zM424.02 39.32c0 .5-.2.92-.5 1.13-.42.3-.84.4-1.35.4-.4 0-.72-.1-1.13-.2-.4-.1-.72-.3-1.13-.6l.63-.83c.5.4 1.02.6 1.64.6.2 0 .3 0 .4-.1.1-.1.22-.2.22-.3 0-.1-.12-.2-.22-.3s-.3-.2-.6-.32c-.32-.1-.53-.2-.63-.2-.1-.1-.3-.1-.5-.3-.42-.2-.53-.62-.53-1.03 0-.42.2-.83.52-1.13.3-.3.82-.4 1.43-.4.62-.02 1.13.2 1.75.6l-.52.92c-.4-.3-.82-.4-1.33-.4-.5 0-.72.1-.72.3 0 .1.1.2.2.3.1.1.42.22.72.32s.52.2.72.2.3.1.5.2c.22.2.42.62.42 1.14zM425.25 35.2c-.2-.2-.2-.3-.2-.6 0-.2.1-.42.2-.62.2-.2.3-.2.62-.2.2 0 .4.1.62.2.2.2.2.3.2.62 0 .2-.1.4-.2.6-.22.22-.33.22-.63.22s-.5 0-.62-.2zm1.24 5.66h-1.45v-4.93h1.44v4.93zM429.15 40.86l-1.95-5.03h1.44l1.23 3.18 1.24-3.17h1.44l-1.95 5.03h-1.45zM437.47 40.14c-.5.5-1.23.82-1.95.82s-1.33-.2-1.85-.72c-.5-.5-.72-1.13-.72-1.85 0-.83.2-1.44.72-1.85.52-.4 1.13-.72 1.75-.72.6 0 1.23.2 1.74.6.52.42.72 1.04.72 1.76v.7h-3.6c0 .32.2.52.42.62.2.2.5.3.82.3.5 0 .92-.2 1.23-.5l.72.82zm-1.23-2.98c-.2-.2-.4-.2-.72-.2-.3 0-.52.1-.72.2-.2.1-.4.4-.4.72h2.14c-.1-.3-.2-.5-.3-.72zM385 45.07h1.76v7.9H385l-3.8-4.93v4.93h-1.73v-7.9h1.64l3.9 5.13v-5.13zM394.35 45.07v1.54h-3.9v1.65h3.5v1.54h-3.5v1.53h4v1.54h-5.84v-7.9h5.75v.1zM401.13 48.87h1.75v2.77c-.83.92-1.85 1.33-3.3 1.33-1.12 0-2.15-.4-2.86-1.13-.72-.72-1.13-1.74-1.13-2.87 0-1.13.4-2.16 1.22-2.98.82-.83 1.74-1.14 2.87-1.14 1.12 0 2.15.4 2.97 1.13l-.92 1.32c-.3-.3-.72-.5-1.03-.6-.3-.1-.62-.22-.92-.22-.72 0-1.23.2-1.65.72-.4.4-.72 1.03-.72 1.85 0 .72.2 1.34.62 1.75.4.4.92.72 1.54.72s1.12-.1 1.53-.3v-2.38zM411.2 51.84c-.83.82-1.75 1.13-3 1.13-1.22 0-2.14-.4-2.97-1.13-.82-.72-1.23-1.74-1.23-2.87 0-1.13.4-2.16 1.23-2.88.82-.73 1.75-1.14 2.98-1.14s2.17.4 3 1.13c.8.7 1.22 1.74 1.22 2.87-.1 1.13-.5 2.05-1.23 2.87zm-.63-2.87c0-.72-.2-1.34-.7-1.85-.42-.5-1.04-.72-1.66-.72-.6 0-1.22.2-1.63.72-.4.5-.72 1.13-.72 1.85 0 .72.2 1.33.72 1.74.4.53 1.02.73 1.64.73s1.24-.2 1.66-.72c.5-.5.7-1.12.7-1.73zM416.94 46.5v6.37h-1.75V46.5h-2.27v-1.54h6.27v1.54h-2.26zM420.53 45.07h1.75v7.9h-1.75v-7.9zM429.87 52.87l-.7-1.75h-3.3l-.72 1.75h-1.85l3.4-7.9h1.73l3.4 7.9h-1.96zm-2.46-5.55l-1.02 2.26h1.95l-.92-2.26zM435.42 46.5v6.37h-1.75V46.5h-2.26v-1.54h6.28v1.54h-2.26zM444.55 45.07v1.54h-3.9v1.65h3.5v1.54h-3.5v1.53h4v1.54h-5.74v-7.9h5.66v.1zM452.36 46.1c.7.7 1.13 1.64 1.13 2.87 0 1.23-.43 2.15-1.14 2.87-.73.72-1.85 1.03-3.4 1.03h-2.66v-7.9h2.77c1.44.1 2.46.4 3.3 1.12zm-1.34 4.6c.4-.4.6-1 .6-1.73 0-.82-.2-1.34-.6-1.75-.4-.4-1.13-.6-1.95-.6h-1.03v4.7h1.13c.82 0 1.44-.2 1.85-.6zM388.9 56.56c.73.72 1.14 1.65 1.14 2.88s-.4 2.15-1.13 2.87c-.7.73-1.83 1.04-3.37 1.04h-2.67v-7.9h2.77c1.44.1 2.46.4 3.28 1.12zm-1.32 4.62c.4-.4.62-1.02.62-1.74s-.2-1.34-.62-1.75c-.4-.4-1.13-.62-1.95-.62h-1.03v4.82h1.13c.82-.1 1.44-.3 1.85-.72zM391.48 55.54h1.74v7.9h-1.74v-7.9zM397.13 57.08c-.2.1-.2.3-.2.5 0 .22.1.42.3.52.2.1.72.3 1.44.52s1.33.4 1.74.82c.43.4.63.93.63 1.64 0 .72-.3 1.23-.82 1.75-.5.4-1.22.6-2.05.6-1.23 0-2.36-.5-3.4-1.43l1.04-1.33c.8.72 1.63 1.13 2.35 1.13.3 0 .62-.1.72-.2.2-.1.3-.3.3-.52 0-.2-.1-.4-.3-.5-.2-.12-.6-.32-1.13-.42-.92-.2-1.54-.52-2.05-.82-.53-.3-.63-.93-.63-1.65s.3-1.34.82-1.75c.5-.4 1.22-.62 2.05-.62.5 0 1.02.1 1.54.3.5.22 1 .42 1.32.73l-.92 1.33c-.72-.52-1.44-.83-2.16-.83-.3 0-.5.1-.6.2zM406.06 61.8c.82 0 1.54-.3 2.15-1.03l1.14 1.13c-.92 1.03-1.95 1.54-3.18 1.54-1.23 0-2.26-.4-2.98-1.13-.82-.7-1.13-1.73-1.13-2.86s.4-2.15 1.23-2.98c.82-.82 1.75-1.13 2.98-1.13 1.34 0 2.36.52 3.3 1.44L408.4 58c-.52-.72-1.24-1.02-2.06-1.02-.6 0-1.23.2-1.74.6-.52.42-.72 1.04-.72 1.76s.2 1.33.6 1.74c.43.4.94.72 1.56.72zM417.14 62.3c-.8.83-1.74 1.14-2.97 1.14-1.23 0-2.16-.4-2.98-1.13-.83-.7-1.24-1.73-1.24-2.86s.4-2.15 1.23-2.87c.8-.72 1.73-1.13 2.97-1.13s2.15.4 2.97 1.13c.83.72 1.24 1.74 1.24 2.87 0 1.13-.4 2.05-1.24 2.87zm-.6-2.86c0-.72-.22-1.34-.73-1.85-.4-.52-1.02-.73-1.64-.73-.6 0-1.23.2-1.64.72-.4.5-.72 1.12-.72 1.84s.2 1.33.72 1.74c.4.52 1.03.72 1.64.72s1.24-.2 1.65-.72c.52-.5.73-1.02.73-1.74zM421.97 61.4c.3.4.72.5 1.23.5.5 0 .93-.2 1.13-.5.2-.32.4-.83.4-1.55v-4.3h1.76v4.4c0 1.13-.32 2.05-.94 2.67-.6.62-1.44.93-2.46.93-1.03 0-1.85-.3-2.47-.93-.6-.6-.92-1.54-.92-2.67v-4.4h1.75v4.3c.1.62.2 1.13.52 1.54zM433.88 55.54h1.74v7.9h-1.74l-3.8-4.93v4.94h-1.75v-7.9h1.65l3.9 5.03v-5.03zM440.96 57.08v6.36h-1.74v-6.36h-2.26v-1.54h6.26v1.54h-2.26zM446.2 57.08c-.2.1-.2.3-.2.5 0 .22.1.42.3.52.2.1.72.3 1.44.52.72.2 1.33.4 1.74.82.4.4.62.93.62 1.64 0 .72-.3 1.23-.82 1.75-.52.4-1.23.6-2.06.6-1.23 0-2.36-.5-3.4-1.43l1.04-1.33c.82.72 1.64 1.13 2.36 1.13.3 0 .6-.1.72-.2.2-.1.3-.3.3-.52 0-.2-.1-.4-.3-.5-.2-.12-.62-.32-1.13-.42-.92-.2-1.53-.52-2.05-.82-.5-.3-.6-.93-.6-1.65s.3-1.34.8-1.75 1.24-.62 2.06-.62c.53 0 1.04.1 1.55.3.52.22 1.03.42 1.34.73l-.94 1.33c-.72-.52-1.43-.83-2.15-.83-.2 0-.4.1-.6.2zM455.33 41.17c-.82 0-1.54-.62-1.54-1.54-.52-15.6-9.66-28.65-23.82-33.78-.82-.3-1.23-1.13-.93-1.95.3-.82 1.13-1.23 1.95-.92 15.4 5.64 25.36 19.6 25.87 36.54 0 .93-.72 1.65-1.54 1.65zM416.32 81.4c-12.52 0-22.27-4.2-29.67-12.93-.5-.62-.5-1.64.2-2.15.62-.52 1.65-.52 2.16.2 6.8 7.9 15.72 11.8 27.32 11.8 11.4 0 20.64-4 27.5-12 .53-.62 1.55-.72 2.17-.2.6.5.7 1.53.2 2.15-7.5 8.72-17.56 13.14-29.88 13.14zM377.3 41.17c-.9 0-1.53-.72-1.53-1.54.4-14.68 8.83-28.03 21.87-34.8.72-.42 1.64-.1 2.05.6.4.73.1 1.65-.62 2.06-12 6.26-19.8 18.57-20.23 32.12 0 .93-.72 1.55-1.54 1.55z"/></g><g><g fill="#2B2A7A"><path d="M306.38 33.67c.3-.5.5-.92.5-1.44 0-.5-.1-.82-.4-1.12-.3-.3-.72-.4-1.13-.4-.82 0-1.64.6-2.46 1.84l-2.47-1.43c.6-1.02 1.33-1.74 2.05-2.25.72-.52 1.74-.72 2.87-.72 1.13 0 2.26.4 3.08 1.13.93.7 1.34 1.74 1.34 3.08 0 .72-.2 1.33-.52 2.05-.3.6-1.02 1.43-1.95 2.45l-2.46 2.57h5.34v2.77h-9.65v-2.27l4-4.1c1.03-1.03 1.54-1.75 1.85-2.16zM317.57 36.03v-2.36h2.97v2.36h1.54v2.67h-1.54V42h-2.97v-3.3h-5.44v-2.36l4.82-8h3.3l-4.63 7.7h1.95z"/></g><path fill="#2B2A7A" d="M336.56 32.65v-4.42h9.85v2.26l-5.53 11.28h-3.28l5.22-10.98h-3.4v1.74l-2.86.1z"/><path fill="none" d="M334.2 25.25L326.7 42"/><path fill="#2B2A7A" d="M332.56 24.23c-2.47 5.54-4.93 11.2-7.5 16.73-1.02 2.26 2.36 4.2 3.3 1.95 2.45-5.53 4.92-11.18 7.48-16.72 1.03-2.26-2.36-4.2-3.28-1.95z"/><g fill="#2B2A7A"><path d="M299.3 53.7v-5.04h1.12v4h2.16v1.03h-3.3zM303.3 48.76h1.13v5.03h-1.13v-5.04zM307.5 51.94l1.24-3.18h1.23l-2.06 5.03h-.9l-2.06-5.04h1.23l1.34 3.18zM314.18 48.76v1.03h-2.46v1h2.25v.94h-2.25v1.02h2.56v1.03h-3.7v-5.04h3.6zM318.3 49.8c-.12.1-.22.2-.22.3s.1.3.2.3c.1.1.42.2.93.32.52.1.83.3 1.14.5.3.22.4.62.4 1.03 0 .42-.2.83-.5 1.13-.3.3-.82.4-1.34.4-.82 0-1.54-.3-2.15-.9l.6-.83c.53.52 1.04.72 1.55.72.2 0 .4 0 .52-.1s.2-.2.2-.3-.1-.32-.2-.32c-.1-.1-.42-.2-.72-.3-.62-.1-1.03-.32-1.23-.53-.3-.2-.42-.6-.42-1.02 0-.5.2-.82.52-1.13.3-.3.72-.4 1.23-.4.3 0 .62.1 1.03.2.3.1.6.3.82.5l-.52.83c-.4-.3-.92-.5-1.33-.5-.2-.12-.4 0-.5.1zM325.27 48.76v1.03h-2.47v1h2.26v.94h-2.26v1.02h2.57v1.03h-3.7v-5.04h3.6zM330.4 50.4c0 .82-.3 1.34-.93 1.54l1.23 1.75h-1.33l-1.13-1.55h-.82v1.54h-1.13v-5.04h1.84c.82 0 1.33.1 1.64.4.4.32.62.73.62 1.34zm-1.34.62c.1-.1.2-.3.2-.62 0-.3-.1-.4-.2-.5-.1-.1-.4-.1-.72-.1h-.82v1.43h.82c.3 0 .62-.1.72-.2zM333.27 51.94l1.23-3.18h1.23l-2.05 5.03h-.92l-2.06-5.04h1.23l1.34 3.18zM336.35 48.76h1.13v5.03h-1.13v-5.04zM340.97 52.77c.52 0 1.03-.2 1.34-.62l.73.72c-.62.6-1.23.93-2.06.93-.72 0-1.44-.2-1.85-.72-.5-.52-.7-1.13-.7-1.85s.2-1.34.7-1.85 1.13-.72 1.85-.72c.82 0 1.54.3 2.06.92l-.62.72c-.3-.4-.8-.6-1.32-.6-.4 0-.82.1-1.03.4-.3.3-.4.6-.4 1.13 0 .5.1.82.4 1.13.3.3.5.4.92.4zM347.54 48.76v1.03h-2.46v1h2.26v.94h-2.26v1.02h2.56v1.03h-3.7v-5.04h3.6z"/></g><path fill="#2B2A7A" d="M324.65 81.4c-.82 0-1.54-.7-1.54-1.53 0-.82.73-1.54 1.55-1.54 16.52 0 30.9-10.58 35.73-26.4 6.05-19.7-5.14-40.64-24.74-46.6-19.7-6.05-40.66 5.14-46.6 24.75-.22.82-1.14 1.23-1.96 1.02-.82-.2-1.23-1.12-1.03-1.95 6.57-21.35 29.16-33.36 50.5-26.8 21.36 6.58 33.37 29.17 26.8 50.52-5.23 17.04-20.74 28.54-38.7 28.54zM309.15 65.7c-.82.72-2.06 1.74-3.2 2.77-2.04 1.74-6.56.5-11.38-5.54l-.1-.1-.1-.1c-4.83-5.97-5.14-10.6-3.1-12.33 1.14-.93 2.48-1.85 3.3-2.57 1.23-1.02.1-5.54-.72-7.5-.82-1.63-1.75-3.07-2.87-4.5-1.65-1.55-2.06-1.34-3.9-.62-2.57 1.44-4.73 3.4-6.37 5.76-1.84 2.67-2.56 5.95-2.15 10.77.3 3.2.3 8.73 6.78 17.46l.5.6.53.62c7.18 8 12.62 9.24 15.7 10.16 4.62 1.33 8 1.33 11 .1 2.65-1.13 5.02-2.87 6.86-5.13 1.13-1.64 1.34-2.16.2-4-1.12-1.44-2.45-2.67-3.8-3.8-1.73-.92-5.94-2.97-7.17-2.05z"/></g><g fill="#2B2A7A"><path d="M496.6 16.12c2.67 3.6 5.34 7.08 8 10.67 1.03 1.33 2.78 1.74 4 .5 7-6.87 13.98-13.75 20.95-20.63 2.37-2.36-1.22-5.95-3.6-3.6C519 9.98 512 16.85 505.03 23.72c1.33.22 2.67.32 4 .53-2.67-3.6-5.34-7.1-8-10.68-1.96-2.57-6.37-.1-4.42 2.57zM488.6 39.63v-6.47h1.43v5.13h2.77v1.33h-4.2zM499.17 38.8c-.62.62-1.44.93-2.36.93-.92 0-1.74-.3-2.35-.93-.62-.6-1.03-1.43-1.03-2.36 0-.92.3-1.74 1.03-2.36.72-.6 1.43-.92 2.36-.92.93 0 1.75.3 2.37.92.6.62 1.02 1.44 1.02 2.36-.1.93-.42 1.75-1.03 2.36zm-.52-2.36c0-.6-.2-1.02-.5-1.43-.42-.4-.83-.6-1.35-.6-.5 0-1.02.2-1.33.6-.4.42-.52.93-.52 1.44 0 .62.2 1.03.52 1.44.4.4.82.62 1.33.62.52 0 1.03-.2 1.34-.62.3-.4.5-.92.5-1.44zM503.27 36.96l1.13-3.7h1.54l1.13 3.7 1.34-3.7h1.55l-2.26 6.47h-1.04l-1.44-4.52-1.43 4.53h-1.04l-2.26-6.47h1.54l1.23 3.7zM515.28 33.26v1.34h-3.18v1.33h2.88v1.23h-2.88v1.34h3.3v1.23h-4.74v-6.47h4.62zM518.16 34.5c-.1.1-.2.3-.2.4s.1.3.2.42c.1.1.5.2 1.13.4.6.1 1.12.42 1.43.73.3.3.5.7.5 1.33 0 .6-.2 1.03-.6 1.44-.42.4-1.03.5-1.75.5-1.02 0-1.95-.4-2.77-1.12l.83-1.03c.72.62 1.33.93 1.95.93.3 0 .5-.1.6-.2.12-.1.22-.32.22-.52s-.1-.3-.2-.4c-.2-.1-.52-.22-.93-.32-.72-.2-1.33-.4-1.65-.72-.3-.3-.5-.72-.5-1.33 0-.6.2-1.12.6-1.43.42-.3 1.03-.5 1.65-.5.4 0 .82.1 1.34.2.42.1.83.3 1.13.6l-.7 1.03c-.53-.4-1.14-.6-1.76-.6-.1 0-.3.1-.5.2zM525.24 34.5v5.23h-1.44V34.5h-1.84v-1.24h5.13v1.23h-1.86zM488.8 51.74l-.72-1.75h-3.3l-.7 1.74h-1.85l3.4-7.9h1.73l3.4 7.9h-1.96zm-2.36-5.55l-1.03 2.25h1.96l-.92-2.26zM491.57 43.83h1.75v7.9h-1.75v-7.9zM501.73 46.5c0 1.23-.5 2.06-1.54 2.47l1.94 2.87H500l-1.76-2.56H497v2.56h-1.73v-7.9h2.98c1.23 0 2.05.2 2.66.6.53.32.83 1.04.83 1.96zm-2.15.93c.2-.2.3-.52.3-.93 0-.4-.1-.72-.3-.92s-.62-.2-1.23-.2H497v2.35h1.35c.6 0 1.02-.1 1.23-.3zM508.92 43.83v1.55h-3.7v1.74h3.5v1.54h-3.5v3.08h-1.74v-7.9h5.44zM515.6 51.74l-.73-1.75h-3.28l-.73 1.74h-1.85l3.4-7.9h1.73l3.4 7.9h-1.96zm-2.37-5.55l-1.03 2.25h1.95l-.92-2.26zM524.83 46.5c0 1.23-.5 2.06-1.54 2.47l1.94 2.87h-2.15l-1.76-2.56h-1.23v2.56h-1.73v-7.9h2.97c1.24 0 2.06.2 2.67.6.52.32.83 1.04.83 1.96zm-2.15.93c.2-.2.3-.52.3-.93 0-.4-.1-.72-.3-.92s-.62-.2-1.23-.2h-1.34v2.35h1.35c.6 0 1.02-.1 1.23-.3zM532.33 43.83v1.55h-3.9v1.64h3.5v1.54h-3.5v1.64h4v1.54h-5.85v-7.9h5.75zM477.4 58.2h1.75V61c-.82.92-1.85 1.33-3.3 1.33-1.12 0-2.14-.4-2.86-1.12-.73-.72-1.14-1.74-1.14-2.87s.4-2.15 1.23-2.97c.8-.82 1.73-1.13 2.86-1.13s2.16.4 2.98 1.13l-.92 1.33c-.3-.3-.72-.5-1.03-.6-.32-.12-.62-.22-.93-.22-.72 0-1.23.2-1.65.72-.4.4-.7 1.03-.7 1.85 0 .73.2 1.35.6 1.76.4.4.93.72 1.54.72.62 0 1.13-.1 1.54-.3V58.2zM482.85 60.26c.3.4.72.5 1.23.5s.92-.2 1.13-.5c.3-.4.42-.82.42-1.54v-4.3h1.74v4.4c0 1.13-.3 2.06-.92 2.67-.62.6-1.44.92-2.47.92-1.02 0-1.85-.3-2.46-.93-.6-.62-.92-1.55-.92-2.68v-4.4h1.75v4.3c0 .62.2 1.13.52 1.54zM494.65 62.2l-.72-1.74h-3.28l-.73 1.75h-1.84l3.38-7.9h1.75l3.4 7.9h-1.95zm-2.46-5.53l-1.04 2.26h1.95l-.9-2.26zM503.8 56.98c0 1.23-.53 2.05-1.55 2.46l1.95 2.87h-2.16l-1.74-2.55h-1.23v2.56h-1.65v-7.9h2.98c1.23 0 2.05.2 2.67.62.5.42.72 1.03.72 1.95zm-2.07.92c.2-.2.3-.52.3-.93 0-.4-.1-.72-.3-.92-.2-.2-.6-.2-1.23-.2h-1.33v2.35h1.33c.5 0 .93-.1 1.23-.3zM511.28 62.2l-.72-1.74h-3.28l-.72 1.75h-1.95l3.4-7.9h1.74l3.4 7.9h-1.86zm-2.46-5.53l-1.03 2.26h1.94l-.92-2.26zM519.6 54.3h1.74v7.9h-1.74l-3.8-4.92v4.93h-1.75v-7.9h1.65l3.9 5.14V54.3zM526.58 55.85v6.36h-1.75v-6.35h-2.26V54.3h6.26v1.55h-2.25zM535.82 54.3v1.55h-3.9v1.64h3.5v1.53h-3.5v1.64h4v1.54h-5.85v-7.9h5.75zM543.2 54.3v1.55h-3.9v1.64h3.5v1.53h-3.5v1.64h4v1.54h-5.84v-7.9h5.75zM507.7 81.72c-12.95 0-23.73-5.14-31.32-14.8-.52-.7-.4-1.63.3-2.14.73-.52 1.65-.4 2.16.3 6.88 8.84 16.94 13.56 28.85 13.56 11.9 0 21.96-4.72 28.94-13.65.5-.73 1.54-.83 2.15-.32.7.5.8 1.54.3 2.15-7.7 9.75-18.48 14.9-31.4 14.9zM545.16 53.6c-.1 0-.3 0-.4-.12-.83-.2-1.35-1.12-1.04-1.95 1.03-3.38 1.44-6.87 1.44-10.47 0-11.9-5.54-22.9-15.1-30.08-.7-.5-.8-1.43-.3-2.15s1.44-.82 2.15-.3c10.38 7.7 16.34 19.6 16.34 32.53 0 3.8-.52 7.6-1.65 11.3-.2.7-.72 1.23-1.44 1.23zM470.22 53.6c-.72 0-1.34-.42-1.44-1.14-1.03-3.7-1.64-7.5-1.64-11.3C467.14 18.8 485.3.63 507.7.63c3.27 0 6.56.4 9.74 1.23.82.2 1.33 1.02 1.13 1.84-.2.82-1.03 1.33-1.85 1.12-2.98-.7-5.95-1.13-9.03-1.13-20.65 0-37.48 16.83-37.48 37.46 0 3.5.5 7 1.43 10.48.2.82-.2 1.64-1.02 1.95-.2 0-.3 0-.4 0z"/></g><g><g fill="#2B2A7A"><g><path d="M224.76 85h-.3c-.62-.1-14.17-3.5-15.1-11.6-.8-7.6-1.94-20.53-1.94-20.64l-.1-.6.6-.22c.42-.1 9.35-3.38 16.85-3.38 5.85 0 11.5 1.23 16.83 3.48l.5.2v.62s-.1 1.34-.3 3.5l-1.64-.1c.1-1.24.2-2.27.2-2.88-5.02-2.06-10.26-3.08-15.6-3.08-6.05 0-13.55 2.36-15.6 3.08.2 2.66 1.23 13.34 1.95 19.9.73 6.58 12.23 9.76 13.77 10.17 1.13-.3 8.2-2.26 11.8-6.16l1.24 1.12c-4.4 4.42-12.72 6.48-13.14 6.58zM224.46 79.97c-.4-.1-10.37-2.56-11-8.52-.6-5.44-1.42-14.68-1.42-14.78l-.1-.62.6-.2c.32-.1 6.78-2.47 12.12-2.47v1.65c-4.2 0-9.24 1.64-10.98 2.15.2 2.16.82 9.55 1.33 14.17.42 4 7.2 6.46 9.76 7.08l-.3 1.54z"/></g><path d="M239.34 74.84c-4.62 0-8.3-3.7-8.3-8.32s3.68-8.3 8.3-8.3c4.62 0 8.32 3.68 8.32 8.3.1 4.62-3.7 8.32-8.32 8.32zm0-15c-3.7 0-6.67 3-6.67 6.68 0 3.7 2.98 6.68 6.67 6.68 3.7 0 6.68-2.98 6.68-6.68.1-3.7-2.98-6.67-6.68-6.67zM238.93 69.1l-2.97-2.9L237.2 65l1.73 1.85 2.67-2.67 1.13 1.13z"/></g><g fill="#2B2A7A"><path d="M263.26 27.4c-.6 0-1.13-.3-1.44-.9-5.85-13.87-19.4-22.8-34.5-22.8s-28.63 8.93-34.48 22.79c-.3.8-1.23 1.1-2.05.8-.84-.3-1.14-1.23-.84-2.05C196.43 10.27 211 .62 227.33.62c16.32 0 31 9.64 37.37 24.74.3.82 0 1.64-.82 2.05-.2 0-.4 0-.62 0zM249.2 75.04c-.52 0-1.03-.2-1.23-.72-.52-.7-.3-1.64.4-2.15 10.38-6.98 16.53-18.58 16.53-31.1v-.1c0-.83.72-1.55 1.54-1.55.83 0 1.54.72 1.54 1.54v.1c0 13.45-6.67 26.08-17.86 33.67-.3.2-.62.3-.92.3zm18.68-33.98zM205.57 75.04c-.3 0-.62-.1-.82-.3-11.2-7.6-17.86-20.13-17.86-33.68v-.1c0-.82.7-1.54 1.53-1.54.82 0 1.54.72 1.54 1.54v.1c0 12.53 6.16 24.13 16.52 31.1.7.52.92 1.45.4 2.16-.4.52-.82.72-1.33.72z"/></g><g fill="#2B2A7A"><path d="M604.7 81.4c-.82 0-1.54-.7-1.54-1.53 0-.82.72-1.54 1.54-1.54 16.52 0 30.9-10.68 35.72-26.5 2.78-9.43 1.44-20-3.5-29.04-4.8-8.74-12.5-15.2-21.24-17.67-9.54-2.97-19.7-1.95-28.53 2.77-8.83 4.73-15.3 12.53-18.28 22.08-.2.82-1.12 1.23-1.95 1.02-.82-.2-1.22-1.13-1.02-1.95 3.18-10.37 10.16-18.78 19.7-23.92 9.56-5.03 20.54-6.16 30.9-2.97 9.45 2.66 17.87 9.65 23.1 19.1 5.35 9.74 6.78 21.24 3.8 31.4-5.24 17.25-20.74 28.75-38.7 28.75zM589.1 65.7c-.93.72-2.06 1.74-3.2 2.77-2.04 1.74-6.56.5-11.38-5.54l-.1-.1-.1-.1c-4.94-5.97-5.14-10.6-3.1-12.33 1.14-.93 2.48-1.85 3.3-2.57 1.23-1.02.1-5.54-.72-7.5-.83-1.63-1.75-3.07-2.88-4.5-1.64-1.55-2.16-1.34-3.9-.62-2.56 1.44-4.72 3.4-6.36 5.76-1.85 2.67-2.57 5.95-2.16 10.77.3 3.2.3 8.73 6.78 17.46l.5.6.52.62c7.2 8 12.73 9.34 15.7 10.16 4.63 1.33 8.02 1.33 11 .1 2.66-1.13 5.02-2.87 6.87-5.13 1.13-1.64 1.34-2.16.2-4-1.12-1.44-2.46-2.67-3.8-3.8-1.74-1.02-5.94-2.97-7.17-2.05zM581.9 27.5h3.1v10.9h5.33v2.56h-8.42V27.5zM598.54 27.5v13.46h-3.08V27.5h3.08zM607.78 40.96l-4.3-13.45h3.37l1.65 5.66c.4 1.64.92 3.18 1.23 4.82.3-1.64.72-3.18 1.23-4.72l1.74-5.75h3.2l-4.53 13.46h-3.6zM628.62 35.2h-4.93v3.2h5.53v2.46h-8.62V27.5h8.32V30h-5.23v2.77h4.92v2.46zM582.42 51.84c.52.3 1.13.4 1.75.4.72 0 1.13-.3 1.13-.7s-.3-.62-1.13-1.03c-1.13-.4-1.85-1.02-1.85-2.05 0-1.02 1.02-2.05 2.56-2.05.62 0 1.24.1 1.75.3l-.3 1.24c-.42-.2-.93-.3-1.45-.3-.6 0-1.02.3-1.02.6 0 .42.4.62 1.23 1.03 1.22.4 1.73 1.13 1.73 2.05 0 .93-.92 2.16-2.77 2.16-.6 0-1.33-.1-1.95-.4l.32-1.24zM593.6 50.5h-2.45v1.65h2.77v1.23h-4.3V46.5h4.1v1.23h-2.68v1.34h2.47l.1 1.44zM596.7 46.7c.7-.1 1.33-.1 2.04-.1.82-.1 1.54.1 2.16.52.4.3.6.82.6 1.33 0 .83-.5 1.44-1.22 1.75.52.3.82.72.93 1.33.2.83.42 1.65.52 1.95h-1.44c-.2-.5-.4-1.02-.5-1.64-.22-.82-.52-1.13-1.14-1.13h-.4v2.68h-1.55V46.7zm1.43 3h.6c.73 0 1.24-.42 1.24-1.04 0-.6-.4-.92-1.12-.92-.2 0-.52 0-.72 0v1.95zM605.83 53.48l-2.16-6.87h1.65l.82 2.88c.2.82.4 1.64.6 2.46.22-.82.42-1.64.63-2.46l.92-2.98h1.63l-2.25 6.88-1.85.1zM613.94 46.6v6.88h-1.54V46.6h1.54zM621.95 53.28c-.52.2-1.13.3-1.75.3-1.75.2-3.4-1.12-3.5-2.87 0-.2 0-.3 0-.5-.1-1.95 1.34-3.6 3.3-3.7h.4c.62 0 1.13.1 1.65.3l-.3 1.24c-.42-.2-.83-.3-1.34-.3-1.23 0-2.25 1.02-2.25 2.25 0 1.22 1.02 2.25 2.26 2.25.4 0 .82-.1 1.23-.2l.32 1.23zM628.62 50.5h-2.47v1.65h2.78v1.23h-4.32V46.5h4.12v1.23h-2.67v1.34h2.46l.12 1.44z"/></g><g fill="#2B2A7A"><path d="M188.67 36.5v-4.92h3.2v.9h-2v1.07h1.5v.9h-1.5v2.04h-1.2zM192.7 36.5v-4.92h1.2v4.9h-1.2zM198.14 31.57h1.2v4.92h-1.2l-2-3.1v3.1h-1.2v-4.93h1.2l2 3.1v-3.1zM203.5 36.5l-.26-.83h-1.77l-.27.82h-1.28l1.7-4.93h1.47l1.7 4.92h-1.3zm-1.73-1.74h1.16l-.58-1.75-.58 1.76zM208.58 31.57h1.2v4.92h-1.2l-2-3.1v3.1h-1.2v-4.93h1.2l2 3.1v-3.1zM211.27 35.83c-.5-.48-.73-1.08-.73-1.8s.24-1.34.73-1.8c.48-.48 1.08-.72 1.8-.72.53 0 1.02.16 1.44.45.44.3.73.7.9 1.2h-1.43c-.18-.36-.48-.54-.9-.54s-.73.14-.96.4c-.23.25-.35.6-.35 1.02 0 .43.12.78.36 1.03.24.26.57.4.98.4s.7-.2.9-.55h1.42c-.17.5-.46.9-.9 1.2-.4.3-.9.44-1.44.44-.7 0-1.3-.24-1.8-.7zM216.17 36.5v-4.92h1.2v4.9h-1.2zM221.54 36.5l-.27-.83h-1.77l-.27.82h-1.27l1.7-4.93h1.46l1.7 4.92h-1.28zm-1.74-1.74h1.17L220.4 33l-.6 1.76zM223.4 31.58h1.2v4h1.5v.92h-2.7v-4.92zM231.98 36.5l-.27-.83h-1.75l-.28.82h-1.27l1.7-4.93h1.46l1.7 4.92h-1.28zm-1.73-1.74h1.16l-.57-1.75-.58 1.76zM237.05 31.57h1.2v4.92h-1.2l-2-3.1v3.1h-1.2v-4.93h1.2l2 3.1v-3.1zM241.03 31.58c.78 0 1.43.23 1.93.68s.76 1.05.76 1.78-.26 1.3-.76 1.77-1.15.7-1.93.7h-1.73v-4.92h1.73zm-.53 4h.53c.46 0 .82-.13 1.08-.4.27-.3.4-.67.4-1.14 0-.47-.13-.85-.4-1.13s-.6-.4-1.07-.4h-.53v3.1zM248.3 31.58c.78 0 1.43.23 1.93.68s.76 1.05.76 1.78-.26 1.3-.77 1.77c-.5.47-1.15.7-1.93.7h-1.73v-4.92h1.73zm-.53 4h.53c.46 0 .82-.13 1.08-.4.26-.3.4-.67.4-1.14 0-.47-.14-.85-.4-1.13s-.62-.4-1.08-.4h-.53v3.1zM254.87 36.5l-.28-.83h-1.77l-.27.82h-1.28l1.7-4.93h1.47l1.7 4.92h-1.28zm-1.74-1.74h1.16l-.6-1.75-.57 1.76zM256.4 32.5v-.92h3.88v.9h-1.35v4.02h-1.2v-4h-1.33zM264.1 36.5l-.26-.83h-1.76l-.28.82h-1.27l1.7-4.93h1.46l1.7 4.92h-1.3zm-1.72-1.74h1.16l-.58-1.75-.58 1.76z"/></g><g fill="#2A2B7A"><path d="M198.58 40.23c0 .52-.2 1.03-.56 1.5-.2.26-.5.46-.9.62-.38.16-.84.24-1.38.24h-1.16v3h-1.9v-7.73h3.06c.9 0 1.6.23 2.1.7.5.45.74 1 .74 1.66zm-4 .93h1.16c.3 0 .5-.1.68-.26.16-.16.24-.4.24-.66s-.08-.5-.25-.68c-.16-.17-.38-.26-.66-.26h-1.17v1.86zM201.6 42.6v3h-1.9v-7.73h3.06c.9 0 1.6.23 2.1.7.5.45.74 1 .74 1.66 0 .45-.14.9-.4 1.3-.28.44-.73.74-1.34.9l1.9 3.16h-2.2l-1.75-3h-.2zm0-3.3v1.86h1.16c.28 0 .5-.1.67-.26.17-.16.25-.4.25-.66s-.08-.5-.25-.68c-.17-.17-.4-.26-.67-.26h-1.17zM207.76 44.55c-.77-.75-1.15-1.7-1.15-2.84s.4-2.08 1.16-2.83c.76-.74 1.7-1.1 2.8-1.1 1.13 0 2.06.36 2.82 1.1.76.75 1.14 1.7 1.14 2.84s-.38 2.1-1.15 2.84c-.76.75-1.7 1.13-2.8 1.13s-2.05-.38-2.8-1.13zm4.3-1.23c.36-.4.54-.94.54-1.6s-.18-1.23-.55-1.63c-.37-.4-.87-.6-1.5-.6-.6 0-1.1.2-1.47.6-.37.4-.56.93-.56 1.6s.2 1.22.56 1.62c.37.4.86.6 1.48.6s1.12-.2 1.5-.6zM215.2 39.3v-1.43h6.1v1.43h-2.12v6.3h-1.88v-6.3h-2.1zM227.1 37.85v1.43h-2.8v1.66h2.46v1.43h-2.46v1.8h2.8v1.42h-4.68v-7.75h4.67zM229.4 44.54c-.76-.74-1.14-1.7-1.14-2.83s.38-2.08 1.15-2.83c.77-.74 1.7-1.1 2.82-1.1.86 0 1.62.22 2.3.67.65.45 1.12 1.08 1.38 1.9h-2.24c-.3-.57-.76-.86-1.4-.86-.66 0-1.16.2-1.53.6-.37.4-.56.95-.56 1.63s.2 1.22.56 1.62c.37.4.87.6 1.52.6s1.1-.28 1.4-.84h2.25c-.26.8-.73 1.44-1.4 1.9-.66.45-1.42.68-2.28.68-1.1 0-2.05-.38-2.8-1.12zM236.58 39.3v-1.43h6.1v1.43h-2.12v6.3h-1.88v-6.3h-2.1zM243.8 45.6v-7.73h1.88v7.72h-1.88zM248.03 44.55c-.77-.75-1.15-1.7-1.15-2.84s.38-2.08 1.15-2.83c.76-.74 1.7-1.1 2.8-1.1 1.13 0 2.06.36 2.82 1.1.76.75 1.14 1.7 1.14 2.84s-.4 2.1-1.15 2.84c-.77.75-1.7 1.13-2.8 1.13s-2.06-.38-2.82-1.13zm4.3-1.23c.36-.4.54-.94.54-1.6s-.18-1.23-.55-1.63c-.37-.4-.87-.6-1.5-.6-.6 0-1.1.2-1.47.6-.37.4-.56.93-.56 1.6s.18 1.22.55 1.62c.37.4.86.6 1.48.6s1.12-.2 1.5-.6zM261.02 37.85h1.9v7.74H261l-3.14-4.88v4.87H256v-7.75h1.88l3.14 4.87v-4.87z"/></g></g><g fill="#2B2A7A"><path d="M718.44 11.2c-.3 0-.6-.1-.82-.32C711.15 6.36 703.56 4 695.55 4c-8 0-15.6 2.36-22.07 6.88-.72.5-1.74.3-2.26-.4-.5-.73-.2-1.76.4-2.27 7.1-4.8 15.4-7.38 23.93-7.38 8.52 0 16.84 2.57 23.92 7.4.72.5.93 1.53.4 2.25-.3.4-.9.72-1.43.72zM717.72 78.53c-.5 0-1.02-.2-1.43-.72-.53-.7-.32-1.73.4-2.25 11.08-7.18 17.76-19.3 17.76-32.54 0-7.38-2.06-14.46-5.96-20.73-.4-.7-.2-1.84.52-2.25.72-.4 1.74-.2 2.26.5 4.3 6.78 6.47 14.48 6.47 22.4 0 14.26-7.2 27.5-19.1 35.3-.4.3-.72.3-.93.3zM674 78.84c-.32 0-.62-.1-.83-.2-12.42-7.8-19.8-21.15-19.8-35.63 0-7.9 2.25-15.7 6.45-22.37.42-.7 1.54-.92 2.26-.5.62.4.82 1.53.4 2.25-3.9 6.16-5.94 13.34-5.94 20.74 0 13.44 6.88 25.76 18.27 32.95.73.4.94 1.54.53 2.26-.4.3-.82.5-1.34.5z"/></g><g fill="#2B2A7A"><path d="M670.6 17.25c.2.2.3.5.3.92 0 .5-.2.92-.6 1.23-.4.3-1.03.4-1.85.4h-3.18v-5.94h3.07c.73 0 1.34.1 1.75.4.4.32.6.63.6 1.14 0 .3-.1.5-.2.72-.1.2-.3.4-.62.5.3.22.52.42.72.63zm-3.7-2.16v1.12h1.14c.6 0 .82-.2.82-.62s-.3-.6-.82-.6h-1.13v.1zm2.27 2.87c0-.42-.3-.62-.93-.62h-1.43v1.23h1.44c.62 0 .93-.2.93-.6zM676.66 18.48v1.33h-4.82v-5.94h4.72v1.33h-2.98v1.02h2.67v1.23h-2.67v1.03h3.08zM681.6 15.2h-1.86v-1.34h5.34v1.33h-1.85v4.6h-1.64v-4.6zM691.44 13.86v5.95h-1.64v-2.35h-2.26v2.36h-1.74v-5.94h1.64v2.26h2.26v-2.26h1.74zM697.5 18.48v1.33h-4.82v-5.94h4.72v1.33h-2.98v1.02h2.67v1.23h-2.68v1.03h3.08zM702.84 15.1v1.32h2.67v1.34h-2.66v2.05h-1.64v-5.94h4.72v1.33h-3.08v-.1zM706.74 13.86h1.64v5.95h-1.64v-5.94zM712.28 18.27h-.92v1.54h-1.65v-5.94h2.8c.5 0 1 .1 1.42.3.4.2.72.42.93.73.2.3.3.7.3 1.1 0 .42-.1.84-.3 1.14s-.52.62-.82.72l1.33 1.85h-1.85l-1.22-1.43zm.82-2.87c-.2-.1-.4-.2-.8-.2h-.94v1.74h.93c.3 0 .6-.1.8-.2.2-.1.3-.42.3-.62 0-.3-.1-.62-.3-.72zM716.8 19.7c-.4-.1-.82-.3-1.13-.5l.5-1.24c.32.2.63.3.94.42.32.1.73.2 1.03.2.62 0 .93-.2.93-.5 0-.22-.1-.32-.3-.42-.22-.1-.52-.2-.93-.3-.4-.1-.82-.22-1.13-.32-.3-.1-.52-.3-.82-.5-.2-.22-.3-.63-.3-1.04 0-.4.1-.72.3-1.02.2-.3.5-.52.92-.72.4-.2.93-.2 1.44-.2.4 0 .82 0 1.13.1.4.1.72.2 1.02.4l-.52 1.24c-.62-.3-1.13-.4-1.65-.4-.3 0-.6 0-.72.1-.1.1-.2.2-.2.4s.1.3.32.3c.2.1.5.22.92.22.4.1.82.2 1.13.3.3.1.52.3.82.52.3.2.3.6.3 1.02 0 .3-.1.72-.3.93-.2.3-.52.5-.93.7-.4.2-.92.3-1.44.3-.4.22-.92.22-1.33 0zM722.86 15.2H721v-1.34h5.34v1.33h-1.84v4.6h-1.65v-4.6zM666.5 28.33h-2.57V26.5h7.4v1.83h-2.47v6.37h-2.36v-6.37zM674 34.4c-.73-.42-1.24-.93-1.65-1.55-.4-.62-.62-1.33-.62-2.16 0-.83.2-1.55.62-2.16.4-.62.92-1.13 1.64-1.54s1.43-.52 2.35-.52c.93 0 1.65.2 2.36.52.73.4 1.24.92 1.66 1.54.4.6.6 1.33.6 2.15 0 .82-.2 1.53-.6 2.15-.4.62-.93 1.13-1.65 1.54-.7.4-1.43.5-2.35.5-.92 0-1.64-.2-2.36-.5zm3.48-1.65c.3-.2.62-.52.82-.82.2-.3.3-.72.3-1.24 0-.42-.1-.83-.3-1.24s-.5-.6-.82-.82c-.3-.2-.72-.3-1.13-.3-.4 0-.82.1-1.13.3-.3.2-.6.52-.82.82-.2.3-.3.72-.3 1.23 0 .5.1.82.3 1.23.2.3.52.6.82.82.3.2.72.3 1.13.3.4 0 .72-.2 1.13-.3zM688.98 31.82l-.82.93v2.05h-2.36v-8.2h2.26v3.38l3.18-3.4h2.56l-3.38 3.6 3.5 4.62h-2.68l-2.26-2.98zM702.53 26.6v8.2h-1.95l-3.6-4.4v4.4h-2.25v-8.2h1.95l3.6 4.4v-4.4h2.25zM706.12 34.4c-.7-.42-1.23-.93-1.64-1.55-.4-.62-.62-1.33-.62-2.16 0-.83.2-1.55.62-2.16.4-.62.92-1.13 1.64-1.54s1.44-.52 2.36-.52c.93 0 1.65.2 2.36.52.72.4 1.24.92 1.65 1.54.4.6.6 1.33.6 2.15 0 .82-.2 1.53-.6 2.15-.42.62-.94 1.13-1.66 1.54-.72.4-1.43.5-2.36.5-.92 0-1.64-.2-2.36-.5zm3.5-1.65c.3-.2.6-.52.8-.82.22-.3.32-.72.32-1.24 0-.42-.1-.83-.3-1.24-.2-.4-.52-.6-.83-.82-.3-.2-.7-.3-1.1-.3-.43 0-.84.1-1.14.3-.3.2-.62.52-.83.82-.2.3-.3.72-.3 1.23 0 .5.1.82.3 1.23.2.3.52.6.83.82.3.2.7.3 1.13.3s.7-.2 1.1-.3zM726.96 26.6l-2.67 8.2h-2.47l-1.54-5.03-1.65 5.03h-2.47l-2.67-8.2h2.37l1.65 5.22 1.74-5.23h2.16l1.64 5.33 1.74-5.34h2.16z"/></g><path fill="#2B2A7A" d="M716.18 68.78c.83-1.03 1.24-2.15 1.24-3.4-.1-1.32-.62-2.25-1.13-2.86.5-1.34.8-3.5-1.14-5.24-1.34-1.23-3.7-1.74-6.88-1.64-2.26.1-4.1.5-4.2.5-.42.12-.93.22-1.34.32 0-.5.1-1.85 1.02-4.93 1.23-3.6 1.13-6.36-.2-8.2-1.44-1.96-3.7-2.06-4.42-2.06-.6 0-1.23.3-1.64.72-.93 1.12-.82 3.07-.72 4-1.13 2.97-4.3 10.36-6.98 12.4-.1 0-.1.12-.1.12-.83.82-1.34 1.74-1.65 2.46-.5-.3-1.13-.4-1.74-.4h-5.23c-1.95 0-3.6 1.53-3.6 3.48V77.8c0 1.97 1.65 3.5 3.6 3.5h5.24c.73 0 1.44-.2 2.06-.6l2.05.2c.32 0 5.87.7 11.5.6 1.04.1 1.96.1 2.9.1 1.53 0 2.86-.1 4-.3 2.66-.5 4.4-1.64 5.33-3.28.72-1.23.72-2.46.6-3.3 1.76-1.53 2.07-3.17 1.96-4.4-.2-.5-.3-1.13-.52-1.54zm-35.2 10.37c-.73 0-1.24-.52-1.24-1.23V64.06c0-.72.62-1.23 1.23-1.23h5.24c.73 0 1.24.5 1.24 1.23V77.8c0 .74-.62 1.25-1.23 1.25l-5.23.1zm33.05-11.4c-.4.4-.4.93-.2 1.34 0 0 .3.6.4 1.43.1 1.13-.5 2.05-1.64 2.98-.42.32-.63.83-.42 1.34 0 0 .4 1.13-.2 2.15-.62 1.02-1.86 1.74-3.8 2.15-1.55.3-3.7.4-6.27.2h-.1c-5.54.1-11.08-.6-11.18-.6l-.82-.1c.1-.22.1-.53.1-.73V64.06c0-.4-.1-.72-.2-1.03.2-.6.6-1.85 1.64-2.87 3.9-2.98 7.6-13.14 7.8-13.65.1-.2.1-.4.1-.6-.1-.93-.1-2.16.1-2.47.42 0 1.65.1 2.48 1.13.92 1.23.8 3.28-.1 6.16-1.45 4.3-1.55 6.57-.42 7.6.62.5 1.34.5 1.85.3.52-.1 1.03-.2 1.54-.3h.1c2.66-.62 7.4-.93 9.03.5 1.44 1.24.4 2.88.3 3.1-.3.5-.2 1.12.2 1.43 0 0 .94.82.94 1.95-.1.9-.52 1.73-1.24 2.45z"/></svg>