<svg xmlns="http://www.w3.org/2000/svg" width="33.758" height="41.097" viewBox="0 0 33.758 41.097"><defs><style>.a{fill:#4f8ffc;}</style></defs><g transform="translate(0 0)"><path class="a" d="M730.927,460.228v-3.5c0-.208-.1-.437-.271-.479l-13.245-8.788a.449.449,0,0,1-.271-.479v-10a3.075,3.075,0,0,0-3.082-3.082h0a3.075,3.075,0,0,0-3.082,3.082v10.329a.449.449,0,0,1-.271.479l-13.266,9.1c-.167.167-.271.271-.271.479l.042,3.665a.6.6,0,0,0,.792.583l12.183-4.728a.6.6,0,0,1,.791.583v10.954c0,.209-.1.437-.271.479l-4.374,2.874a.449.449,0,0,0-.271.479v2.124a.6.6,0,0,0,.791.583l5.373-1.874c.062.062.125,0,.208,0h3.082c.125,0,.125,0,.167.041l5.519,1.812a.6.6,0,0,0,.791-.583v-1.791c0-.208-.1-.437-.271-.479l-4.415-2.915a.449.449,0,0,1-.271-.479V457.084a.6.6,0,0,1,.792-.583l12.245,4.248A.578.578,0,0,0,730.927,460.228Z" transform="translate(-697.169 -433.905)"/></g></svg>